# xmcd
#
# Track frame offsets: 
#        150
#        15405
#        29812
#        42950
#        56159
#        70986
#        85539
#        99783
#        112945
#        125529
#        139474
#        149842
#        163538
#        178621
#        191879
#        206990
#        220954
#        233956
#        248905
#
# Disc length: 3495 seconds
#
# Revision: 0
# Processed by: cddbd v1.5.1PL2 Copyright (c) Steve Scherf et al.
# Submitted via: ExactAudioCopy v0.95b3
#
DISCID=210da513
DTITLE=Billie Holiday - Sings The Blues
DYEAR=1900
DGENRE=Blues
TTITLE0=They Can't Take That Away From Me
TTITLE1=Fine And Mellow
TTITLE2=Summertime
TTITLE3=My Man
TTITLE4=Strange Fruit
TTITLE5=Easy Living
TTITLE6=God Bless The Child
TTITLE7=St Louis Blues
TTITLE8=Sugar
TTITLE9=More Than You Know
TTITLE10=Romance In The Dark
TTITLE11=All Of Me
TTITLE12=Love Me Or Leave Me
TTITLE13=Porgy
TTITLE14=Ain't Nobody's Business If I Do
TTITLE15=They Say
TTITLE16=I Gotta Right To Sing The Blues
TTITLE17=Georgia On My Mind
TTITLE18=I Cover The Waterfront
EXTD=
EXTT0=
EXTT1=
EXTT2=
EXTT3=
EXTT4=
EXTT5=
EXTT6=
EXTT7=
EXTT8=
EXTT9=
EXTT10=
EXTT11=
EXTT12=
EXTT13=
EXTT14=
EXTT15=
EXTT16=
EXTT17=
EXTT18=
PLAYORDER=
